<?xml version="1.0" standalone="no"?>
<!DOCTYPE svg PUBLIC "-//W3C//DTD SVG 20010904//EN"
 "http://www.w3.org/TR/2001/REC-SVG-20010904/DTD/svg10.dtd">
<svg version="1.0" xmlns="http://www.w3.org/2000/svg"
 width="626.000000pt" height="626.000000pt" viewBox="0 0 626.000000 626.000000"
 preserveAspectRatio="xMidYMid meet">

<g transform="translate(0.000000,626.000000) scale(0.100000,-0.100000)"
fill="#000000" stroke="none">
<path d="M2996 5144 c-23 -7 -51 -69 -174 -389 -108 -279 -143 -387 -222 -675
-28 -102 -93 -327 -145 -500 -52 -173 -113 -391 -136 -485 -23 -93 -47 -176
-53 -184 -17 -22 -134 -98 -436 -283 -157 -96 -400 -250 -540 -343 -140 -92
-300 -197 -355 -233 -228 -148 -387 -285 -399 -342 -3 -18 -6 -86 -6 -151 0
-115 0 -118 27 -138 51 -41 169 -63 633 -121 135 -16 292 -37 350 -45 295 -42
1025 -111 1315 -125 110 -5 308 -10 441 -10 l241 0 59 41 c114 80 291 236 464
409 197 198 779 757 825 792 25 19 42 23 120 24 49 1 112 7 140 13 91 22 257
41 352 42 99 0 168 -20 168 -51 0 -8 -42 -38 -95 -68 -198 -111 -217 -172 -76
-236 65 -30 76 -39 84 -68 13 -49 5 -62 -32 -51 -17 4 -83 8 -146 7 -100 0
-125 -4 -190 -28 -133 -50 -234 -115 -316 -206 -68 -74 -161 -206 -195 -275
-29 -60 -31 -71 -27 -140 3 -42 10 -81 16 -87 16 -16 498 -80 547 -72 63 9
120 49 235 163 165 162 243 297 242 417 0 55 -11 84 -44 120 -18 20 -18 27 -7
80 17 83 0 121 -73 162 -30 17 -63 41 -73 52 -18 19 -18 21 1 41 10 11 53 38
96 61 154 80 180 161 68 218 -60 31 -303 28 -516 -5 -180 -28 -174 -28 -193
-16 -11 7 11 73 109 327 172 448 357 943 366 979 4 17 66 194 139 395 195 537
265 767 265 876 0 99 5 99 -1195 99 -544 0 -1136 3 -1315 7 -179 4 -333 5
-344 2z m2561 -100 c39 -4 64 -11 67 -20 9 -23 -22 -165 -65 -301 -23 -71
-101 -288 -174 -483 -72 -195 -194 -537 -270 -760 -75 -223 -163 -475 -195
-561 -32 -86 -68 -189 -80 -228 l-21 -71 -42 0 c-23 0 -161 14 -307 30 -146
17 -350 37 -455 45 -549 42 -974 96 -1425 181 -211 39 -210 39 -210 77 0 49
59 280 144 562 41 138 93 315 116 395 74 257 170 549 239 729 38 97 81 213 95
258 15 45 37 97 50 115 l22 33 739 6 c805 6 1674 3 1772 -7z m201 -116 c-8
-88 -189 -628 -363 -1078 -37 -96 -105 -278 -150 -405 -46 -126 -114 -315
-153 -420 -38 -104 -93 -261 -122 -348 -30 -91 -57 -156 -63 -154 -6 2 -15 15
-20 30 -7 23 8 78 88 310 182 528 357 1022 412 1162 46 115 320 840 355 938
16 43 21 32 16 -35z m-3251 -2133 c72 -8 250 -32 395 -54 365 -55 492 -69 728
-81 323 -16 445 -28 755 -71 160 -22 310 -43 334 -47 l44 -7 -164 -155 c-90
-86 -234 -215 -319 -287 -85 -72 -229 -207 -320 -299 -186 -188 -284 -277
-383 -348 l-68 -49 -262 12 c-144 7 -280 16 -302 21 -22 5 -180 18 -350 30
-392 26 -678 52 -920 84 -104 14 -278 37 -385 51 -178 24 -402 63 -572 102
-43 9 -68 20 -68 29 0 7 26 34 58 60 69 57 461 317 662 440 312 190 610 381
725 464 66 48 134 94 150 103 38 20 95 21 262 2z m2339 -352 c-8 -32 -330
-354 -597 -598 -90 -82 -261 -244 -379 -360 -207 -201 -293 -275 -307 -262
-10 10 -15 101 -6 112 4 6 37 33 73 60 36 27 123 106 194 175 70 69 206 195
302 280 159 142 465 426 639 592 62 60 71 65 79 48 5 -10 5 -31 2 -47z m492
-600 c-91 -94 -127 -160 -97 -178 6 -4 56 40 113 98 57 59 113 108 128 112 33
8 121 -35 144 -71 16 -24 16 -29 1 -77 -44 -140 -222 -333 -355 -387 -39 -15
-209 -9 -365 15 -108 16 -137 27 -137 53 0 42 215 314 303 383 93 74 174 106
272 108 l49 1 -56 -57z m-4488 -258 c132 -34 241 -54 440 -80 652 -84 871
-106 1345 -135 594 -36 810 -52 828 -61 13 -7 17 -22 17 -59 0 -27 -3 -51 -7
-53 -11 -6 -521 10 -728 23 -654 41 -1170 98 -1755 195 -214 36 -346 61 -361
71 -10 6 -12 104 -3 128 9 23 31 20 224 -29z"/>
<path d="M3366 4909 c-172 -5 -231 -10 -242 -20 -7 -8 -27 -68 -44 -134 -38
-145 -221 -702 -300 -910 -31 -82 -61 -168 -68 -190 -9 -33 -62 -282 -112
-528 -6 -26 -10 -66 -10 -87 0 -33 4 -41 23 -45 129 -30 402 -77 522 -90 83
-9 247 -30 365 -46 176 -25 282 -33 590 -44 206 -8 418 -17 470 -21 76 -5 98
-4 107 7 17 21 42 93 147 429 52 168 127 397 166 510 120 343 146 425 220 695
79 284 98 408 66 434 -32 26 -357 40 -1026 43 -355 2 -748 0 -874 -3z m339
-90 c161 -9 271 -9 410 -1 130 7 251 7 385 1 107 -6 300 -11 429 -13 297 -3
285 8 232 -198 -16 -62 -50 -194 -76 -293 -25 -99 -113 -382 -195 -630 -82
-247 -167 -514 -189 -592 -22 -77 -47 -157 -55 -177 -17 -42 -23 -43 -197 -26
-57 5 -239 17 -404 25 -328 17 -530 35 -730 66 -71 11 -215 31 -320 44 -195
25 -281 40 -302 53 -10 6 2 67 46 252 105 433 195 738 326 1096 41 111 85 241
99 289 14 48 28 90 31 93 7 7 130 19 220 21 39 0 169 -4 290 -10z"/>
<path d="M4795 4591 c-83 -25 -164 -66 -180 -91 -9 -15 28 -12 91 6 30 8 59
14 65 12 6 -2 -60 -61 -146 -131 -86 -71 -158 -127 -159 -125 -2 2 -8 36 -14
77 -6 40 -15 78 -21 84 -13 13 -52 2 -85 -24 -32 -25 -157 -177 -279 -338 -49
-64 -92 -117 -96 -119 -5 -2 -17 29 -26 69 -10 39 -27 82 -39 95 -20 23 -22
23 -53 8 -31 -16 -94 -87 -177 -201 -35 -50 -111 -123 -127 -123 -4 0 -22 38
-40 85 -19 47 -43 98 -55 113 l-22 27 -83 -57 c-46 -32 -84 -56 -85 -55 -1 1
13 47 31 102 19 55 60 181 91 280 l57 180 24 -90 c35 -134 73 -177 73 -82 -1
51 -33 248 -44 266 -13 20 -72 7 -119 -26 -43 -30 -163 -163 -186 -207 -35
-65 41 -33 120 51 28 30 53 52 55 50 2 -2 -12 -43 -32 -93 -57 -144 -356
-1053 -350 -1063 23 -37 232 -57 836 -81 151 -6 339 -14 418 -17 78 -3 145 -9
148 -14 2 -4 -23 -30 -56 -56 -64 -52 -78 -80 -34 -69 58 15 160 96 209 166
l29 41 -102 102 c-81 81 -102 98 -108 84 -9 -24 12 -70 58 -125 21 -26 38 -50
38 -53 0 -10 -265 13 -276 24 -6 6 84 276 158 477 48 128 169 399 192 429 6 7
45 39 86 71 41 31 114 96 162 144 l87 86 3 -92 c2 -55 7 -93 14 -95 13 -4 52
123 63 204 9 59 2 115 -14 119 -6 1 -50 -10 -100 -25z m-415 -351 c0 -75 -22
-146 -213 -686 -101 -287 -90 -268 -162 -275 -33 -4 -97 -7 -142 -8 -67 -1
-83 2 -83 14 0 8 20 61 44 118 25 57 75 185 111 283 37 98 71 187 76 196 5 10
46 59 90 110 45 51 108 131 141 178 117 165 138 175 138 70z m-480 -340 c5
-19 10 -43 10 -53 0 -25 -77 -227 -154 -402 -76 -174 -71 -171 -216 -155 -47
6 -89 10 -94 10 -15 0 3 76 56 238 l51 157 86 90 c47 50 113 121 146 158 l59
68 23 -38 c13 -21 28 -54 33 -73z m-445 -59 c20 -48 26 -76 23 -110 -5 -52
-102 -410 -115 -421 -11 -11 -248 6 -272 19 -18 10 -18 14 -6 68 8 32 29 94
48 138 19 44 44 109 56 145 12 36 27 75 34 87 16 28 189 155 198 145 4 -4 19
-36 34 -71z"/>
<path d="M2311 2656 c-6 -7 -111 -71 -234 -142 -224 -128 -403 -245 -509 -329
-65 -51 -75 -84 -35 -108 13 -9 132 -28 287 -46 744 -90 1641 -202 1689 -211
79 -15 141 -12 186 9 46 20 558 530 563 560 5 30 -20 40 -159 65 -187 34 -251
42 -519 66 -129 12 -462 50 -739 86 -278 35 -508 64 -512 64 -3 0 -12 -6 -18
-14z m133 -82 c26 -4 45 -10 44 -14 -2 -4 -30 -31 -63 -60 l-60 -52 -56 6
c-30 3 -66 9 -79 14 -22 8 -17 13 61 59 94 57 88 55 153 47z m295 -40 c3 -3
-27 -31 -95 -88 -32 -26 -73 -33 -123 -19 -23 6 -21 9 40 65 l64 58 55 -6 c30
-4 57 -8 59 -10z m230 -30 c2 -2 -15 -26 -39 -54 -45 -53 -63 -59 -141 -43
l-33 6 60 53 c57 51 61 53 104 47 25 -3 47 -7 49 -9z m228 -28 c1 -1 -19 -25
-43 -53 -45 -52 -46 -52 -92 -46 -26 3 -49 8 -51 10 -3 2 17 26 44 53 49 49
51 50 95 44 25 -4 46 -7 47 -8z m289 -35 c7 -4 -8 -27 -40 -63 l-51 -56 -79
13 c-43 8 -81 17 -84 19 -2 3 15 28 38 56 l43 51 81 -7 c45 -3 86 -9 92 -13z
m303 -26 c2 -2 -23 -34 -55 -71 l-58 -66 -61 7 c-113 12 -111 8 -52 81 l52 64
85 -6 c47 -3 86 -7 89 -9z m-1616 -32 c42 -10 77 -20 77 -23 0 -3 -16 -18 -36
-34 l-36 -28 -114 12 c-63 7 -112 15 -109 19 15 15 111 70 125 70 8 1 50 -7
93 -16z m1875 -81 l-53 -54 -95 7 c-52 4 -97 8 -99 11 -2 2 21 32 52 67 l56
64 96 -20 96 -21 -53 -54z m-1550 30 c23 -7 23 -7 -10 -39 -33 -32 -34 -33
-93 -23 -33 5 -64 10 -70 10 -5 1 6 14 25 30 28 24 43 30 80 29 25 -1 55 -4
68 -7z m301 -28 c3 -2 -13 -23 -35 -45 l-40 -40 -67 11 c-37 7 -67 15 -67 18
0 3 15 21 33 40 32 34 32 34 101 28 39 -4 72 -9 75 -12z m230 -20 c2 -2 -14
-25 -36 -51 -43 -50 -59 -54 -131 -38 -23 6 -23 7 20 54 43 49 43 49 93 44 28
-3 52 -7 54 -9z m224 -34 c31 -6 57 -15 57 -19 0 -4 -19 -26 -42 -49 l-43 -41
-65 9 c-36 5 -71 10 -77 10 -21 0 -15 12 28 62 31 36 46 47 62 43 12 -2 48 -9
80 -15z m-1285 -26 c50 -4 92 -9 92 -13 0 -11 -129 -96 -142 -94 -7 0 -64 7
-125 13 -62 7 -113 16 -113 21 0 4 26 26 58 49 49 34 63 39 97 35 22 -2 82 -7
133 -11z m1537 -19 c96 -15 93 -11 49 -56 l-39 -40 -75 7 c-41 3 -79 9 -83 11
-14 8 76 94 93 89 8 -3 33 -8 55 -11z m-1197 -20 c28 -4 52 -10 52 -14 0 -4
-21 -28 -47 -53 l-48 -46 -92 11 c-51 6 -93 13 -93 16 1 3 29 27 63 53 45 34
69 46 87 43 14 -2 49 -7 78 -10z m1525 -22 l68 -6 -38 -39 -38 -39 -85 7 c-47
3 -89 9 -93 11 -5 3 6 20 24 39 36 37 45 39 162 27z m-1250 -18 c20 -3 37 -9
37 -13 -1 -4 -25 -25 -55 -47 -49 -37 -57 -40 -107 -36 -29 1 -55 5 -57 7 -3
3 17 27 44 55 40 39 55 49 75 45 14 -3 42 -7 63 -11z m247 -41 c27 -4 50 -9
50 -13 -1 -3 -16 -23 -34 -45 l-33 -38 -81 7 c-45 4 -82 10 -81 14 1 13 105
90 116 86 7 -2 35 -7 63 -11z m288 -46 c23 -3 23 -4 -12 -44 l-35 -41 -67 8
c-37 5 -69 11 -71 13 -3 3 9 22 26 44 32 39 32 39 84 31 29 -4 62 -9 75 -11z
m281 -34 c24 -5 23 -6 -15 -45 -38 -39 -41 -40 -89 -34 -27 3 -63 9 -79 12
l-28 5 38 39 c38 39 40 40 94 34 30 -3 66 -8 79 -11z m299 -30 c17 -3 32 -9
32 -14 0 -5 -17 -23 -37 -40 -37 -31 -39 -32 -121 -27 -46 3 -86 8 -89 11 -4
4 11 24 32 46 38 39 40 40 94 34 31 -3 71 -7 89 -10z"/>
<path d="M1854 1831 c-60 -38 -122 -83 -139 -100 -29 -31 -29 -32 -10 -50 29
-28 322 -86 693 -136 127 -18 179 -21 195 -13 35 16 177 205 177 234 0 24 -45
34 -285 65 -126 16 -282 38 -346 49 -64 11 -130 20 -146 20 -19 0 -67 -24
-139 -69z m349 -78 c-14 -18 -38 -42 -53 -53 -27 -20 -28 -20 -161 6 -74 14
-135 27 -137 29 -2 1 28 23 67 47 l70 45 120 -20 120 -20 -26 -34z m317 -9
c63 -9 117 -17 119 -19 4 -5 -52 -76 -73 -94 -14 -11 -139 0 -284 26 l-34 6
54 54 c43 43 58 53 78 49 14 -3 77 -13 140 -22z"/>
</g>
</svg>
