<?xml version="1.0" standalone="no"?>
<!DOCTYPE svg PUBLIC "-//W3C//DTD SVG 20010904//EN"
 "http://www.w3.org/TR/2001/REC-SVG-20010904/DTD/svg10.dtd">
<svg version="1.0" xmlns="http://www.w3.org/2000/svg"
 width="740.000000pt" height="740.000000pt" viewBox="0 0 740.000000 740.000000"
 preserveAspectRatio="xMidYMid meet">

<g transform="translate(0.000000,740.000000) scale(0.100000,-0.100000)"
fill="#000000" stroke="none">
<path d="M4667 6134 c-4 -4 -41 -6 -83 -5 -49 1 -80 -2 -84 -10 -9 -14 -180
-24 -180 -9 0 14 -47 12 -53 -2 -4 -9 -8 -10 -14 -2 -4 6 -34 9 -68 7 -33 -2
-125 -4 -204 -4 -79 0 -152 -4 -162 -9 -12 -7 -20 -7 -24 0 -8 13 -52 13 -60
0 -4 -6 -23 -10 -43 -9 -20 0 -75 -2 -121 -4 -52 -3 -96 -1 -119 7 -31 11 -42
10 -96 -13 -40 -16 -77 -24 -108 -23 -27 1 -48 -2 -48 -6 0 -10 -285 -31 -490
-37 -122 -4 -243 -19 -355 -43 -82 -19 -181 -45 -224 -59 -64 -23 -77 -60 -88
-255 -5 -87 -13 -162 -19 -168 -5 -5 -33 -14 -61 -20 -47 -8 -68 -16 -113 -42
-18 -10 -24 -12 -81 -33 -87 -32 -289 -233 -289 -288 0 -9 -5 -19 -10 -22 -6
-4 -20 -25 -31 -48 -20 -37 -21 -52 -15 -142 13 -191 18 -230 37 -275 10 -25
28 -88 40 -140 19 -84 26 -99 60 -132 34 -32 44 -37 72 -31 43 8 56 18 117 91
50 60 80 78 80 48 0 -8 13 -27 28 -43 16 -15 31 -35 34 -44 4 -9 33 -34 66
-57 56 -38 60 -39 77 -24 10 9 -5 -17 -32 -58 -89 -133 -197 -398 -238 -580
-26 -111 -26 -120 -16 -263 6 -81 11 -203 11 -272 0 -111 8 -175 40 -336 10
-49 53 -130 130 -244 26 -38 54 -83 63 -100 17 -32 133 -168 279 -327 59 -65
113 -112 164 -143 l74 -47 -25 -20 c-14 -11 -25 -26 -25 -34 0 -8 -9 -14 -19
-14 -12 0 -26 -15 -40 -45 -12 -25 -21 -48 -21 -51 0 -4 -13 -28 -28 -53 -37
-60 -53 -118 -63 -219 -9 -105 3 -135 70 -164 38 -16 69 -20 176 -20 72 0 142
5 157 11 52 20 116 155 153 326 10 44 19 85 21 92 3 12 74 -2 239 -46 215 -58
543 -94 840 -94 128 1 302 29 472 79 88 25 102 23 103 -14 0 -11 28 -71 64
-137 9 -16 16 -37 16 -46 0 -20 45 -89 73 -111 25 -20 100 -23 162 -7 22 5 72
16 110 23 90 17 135 43 158 88 17 34 17 41 3 89 -9 28 -13 55 -11 59 12 19
-37 116 -70 140 -19 14 -35 29 -35 33 0 5 -9 20 -20 34 -11 14 -24 41 -29 61
-10 34 -8 37 56 106 149 161 286 366 323 481 24 79 105 250 129 274 27 27 59
120 89 256 25 114 26 134 25 380 -1 204 -5 276 -18 335 -10 41 -19 104 -22
140 -3 36 -9 70 -13 75 -4 6 -13 35 -20 65 -16 69 -40 130 -50 130 -5 0 -16
25 -25 55 -8 30 -49 116 -89 190 l-74 134 16 35 c8 19 24 37 34 39 10 3 21 18
24 36 4 16 15 38 25 47 18 17 22 14 93 -54 83 -81 108 -88 170 -51 43 25 51
50 67 199 6 63 16 120 21 127 5 6 12 60 15 120 7 127 -12 213 -53 246 -14 10
-33 36 -44 58 -11 21 -29 43 -40 49 -11 6 -20 16 -20 23 0 16 -84 100 -92 92
-3 -4 -29 10 -57 30 -29 21 -66 38 -88 41 -20 3 -44 11 -53 18 -8 7 -27 16
-41 19 -14 4 -36 16 -49 27 -13 11 -31 18 -41 15 -9 -3 -20 -2 -23 4 -3 5 -22
9 -42 9 -19 0 -37 2 -39 4 -2 1 -6 31 -8 66 -4 46 -12 74 -31 100 -33 48 -74
92 -86 92 -5 0 -19 18 -30 40 -11 22 -36 55 -55 74 -19 20 -35 41 -35 49 0 16
-37 50 -79 71 -34 18 -35 18 -44 10z m14 -183 c19 -23 48 -62 64 -86 17 -23
42 -58 56 -76 15 -19 32 -59 39 -91 6 -31 20 -68 31 -82 20 -25 20 -25 -1 -36
-11 -6 -20 -8 -20 -5 0 3 -9 1 -20 -5 -17 -9 -20 -6 -29 27 -6 21 -11 46 -11
56 0 28 -35 89 -72 124 -70 68 -235 122 -323 106 -22 -4 -44 -6 -48 -5 -32 8
-381 -25 -557 -53 -164 -26 -521 -43 -970 -46 -69 -1 -155 -5 -192 -11 -45 -6
-74 -5 -87 2 -38 20 -104 22 -143 4 -45 -20 -73 -73 -108 -199 -12 -44 -26
-84 -31 -90 -5 -5 -9 -17 -9 -27 0 -26 -8 -24 -68 17 -1 1 4 28 13 61 8 32 15
100 15 150 l0 92 108 25 c146 35 304 64 382 72 36 3 124 15 195 25 186 28 348
48 520 66 133 13 229 15 675 14 52 0 138 4 190 8 52 4 156 7 231 7 l136 0 34
-44z m-743 -212 c11 6 128 6 375 -3 40 -1 47 -9 20 -26 -13 -7 12 -10 95 -8
105 1 114 0 137 -22 30 -28 82 -129 91 -175 5 -26 1 -39 -14 -55 -48 -52 -34
-123 27 -141 47 -14 87 -70 71 -99 -6 -11 -14 -20 -18 -20 -4 0 -25 -25 -47
-55 -22 -30 -45 -54 -52 -55 -6 0 -19 -20 -30 -45 -10 -25 -22 -45 -27 -45 -5
0 -47 15 -95 34 -47 19 -115 45 -151 59 -36 14 -128 44 -205 67 -124 36 -152
41 -245 41 -162 1 -586 -42 -720 -72 -25 -6 -74 -14 -110 -19 -36 -5 -109 -24
-163 -44 -55 -20 -118 -36 -141 -36 -33 0 -57 -9 -105 -40 -34 -22 -73 -40
-87 -40 -27 0 -94 61 -118 109 -8 15 -28 34 -45 40 l-29 13 30 51 c16 29 38
59 48 67 33 26 48 100 21 100 -19 0 -52 43 -45 59 22 51 54 149 54 166 1 60
61 95 163 95 26 0 60 6 76 14 16 9 33 11 41 6 7 -4 24 -4 37 1 13 5 38 9 56 8
18 0 66 2 107 4 52 4 84 1 104 -9 33 -16 53 -18 58 -6 2 4 25 15 52 23 38 12
56 13 78 5 19 -7 31 -7 36 -1 4 6 32 10 62 11 30 0 98 6 150 12 52 7 138 14
190 17 52 3 124 8 160 13 36 4 72 4 81 1 8 -4 21 -4 27 0z m1202 -263 c19 -4
43 -8 52 -10 10 -1 68 -33 129 -71 83 -51 121 -82 146 -117 19 -25 37 -48 41
-50 4 -2 17 -18 30 -36 16 -23 26 -57 33 -119 10 -81 9 -130 -7 -255 l-6 -48
-81 64 c-103 80 -250 176 -270 176 -9 0 -17 4 -19 8 -1 4 -41 33 -88 63 -47
31 -104 71 -126 90 -23 19 -76 60 -118 93 -42 32 -76 66 -76 74 0 21 77 92
100 92 10 0 20 4 22 9 2 5 18 18 37 29 26 16 47 20 100 17 36 -1 82 -6 101 -9z
m-3028 -146 c40 -6 95 -21 122 -35 27 -14 52 -22 57 -19 5 3 9 0 9 -7 0 -7 7
-20 15 -29 14 -15 11 -22 -33 -71 -95 -106 -171 -179 -233 -226 -194 -147
-282 -218 -353 -287 -44 -42 -82 -76 -86 -76 -14 0 -31 102 -34 215 -2 66 -9
133 -15 149 -10 24 -8 33 9 60 11 17 27 47 36 66 17 37 67 90 84 90 5 0 9 5 7
11 -7 34 191 138 301 160 20 3 38 7 39 8 1 0 35 -4 75 -9z m2844 -301 c49 -44
107 -93 129 -109 22 -15 66 -52 98 -82 l59 -54 -21 -40 c-12 -21 -21 -42 -21
-47 0 -5 -13 -21 -28 -37 l-28 -28 -38 23 c-21 13 -52 36 -69 53 -36 34 -109
81 -177 113 -55 26 -55 26 -115 66 -26 18 -53 35 -59 38 -8 3 -7 7 2 11 6 3
12 12 12 19 0 8 12 15 27 17 16 2 29 10 31 20 3 15 89 113 103 117 3 0 45 -35
95 -80z m-916 -7 c41 -12 98 -28 126 -35 51 -15 155 -67 229 -118 22 -14 76
-39 119 -55 43 -15 90 -37 105 -49 14 -13 73 -46 131 -74 136 -68 139 -69 201
-116 93 -71 164 -150 215 -241 74 -131 98 -194 133 -339 37 -157 50 -294 58
-605 5 -218 4 -243 -17 -345 -28 -138 -61 -246 -111 -355 -21 -47 -42 -104
-47 -127 -7 -30 -35 -72 -109 -160 -54 -65 -123 -153 -152 -195 -64 -93 -234
-251 -333 -310 -134 -80 -222 -100 -498 -117 -176 -10 -383 -8 -610 7 -187 13
-232 21 -334 62 -44 18 -120 39 -170 47 -76 12 -108 24 -205 75 -64 34 -142
79 -174 101 -76 50 -184 160 -282 283 -43 55 -106 128 -139 164 -196 211 -268
405 -267 716 1 228 34 433 90 563 16 36 47 111 70 165 59 137 171 358 223 437
23 36 73 93 110 125 36 33 87 87 113 121 67 90 127 140 252 209 91 50 130 66
229 89 65 15 151 32 189 36 39 5 113 18 165 29 192 41 562 47 690 12z m-1741
-66 c12 -18 35 -39 51 -46 17 -7 29 -18 27 -24 -7 -17 12 -46 30 -46 10 0 -12
-30 -59 -77 -42 -43 -88 -103 -103 -133 -45 -91 -91 -163 -133 -207 -44 -48
-52 -52 -52 -23 0 12 -7 20 -17 20 -21 0 -63 46 -63 69 0 9 -11 38 -25 65
l-24 49 82 92 c107 121 262 293 264 294 1 1 11 -14 22 -33z m337 -3123 c58
-39 83 -62 79 -72 -2 -9 -11 -51 -20 -93 -9 -42 -26 -101 -39 -130 -13 -29
-26 -61 -30 -72 -7 -19 -34 -19 -144 1 l-33 5 6 57 c4 31 12 65 19 76 7 11 24
54 40 95 15 41 31 83 37 92 12 24 12 59 0 39 -6 -10 -9 -2 -9 23 0 20 2 36 5
36 3 0 43 -26 89 -57z m2206 -70 c63 -107 70 -118 88 -138 10 -11 20 -36 24
-55 l6 -36 -57 -17 c-31 -10 -75 -20 -98 -24 -38 -5 -42 -3 -54 23 -19 41 -30
82 -37 134 -3 25 -10 60 -16 78 -5 18 -8 35 -6 36 18 14 96 56 105 56 6 0 26
-26 45 -57z"/>
<path d="M3650 4884 c-157 -14 -348 -40 -420 -56 -25 -5 -67 -14 -95 -18 -27
-5 -77 -18 -110 -30 -33 -12 -83 -22 -111 -24 -41 -2 -66 -11 -127 -50 -42
-26 -98 -64 -126 -84 -58 -44 -177 -175 -187 -205 -10 -33 -85 -157 -95 -157
-4 0 -22 -30 -40 -67 -18 -38 -44 -86 -59 -108 -63 -93 -158 -324 -190 -462
-19 -79 -20 -108 -15 -307 8 -276 32 -443 76 -517 16 -27 29 -54 29 -58 0 -5
6 -14 14 -20 7 -6 36 -48 64 -94 29 -45 96 -131 152 -190 55 -60 109 -121 120
-136 21 -30 314 -231 372 -255 19 -8 80 -24 136 -35 57 -11 141 -32 187 -45
112 -33 245 -52 445 -65 240 -16 299 -14 460 18 257 52 485 149 599 255 126
119 284 346 320 460 26 82 77 192 100 215 29 29 57 116 81 247 19 103 22 139
16 275 -4 85 -11 193 -17 240 -6 46 -14 116 -19 154 -14 128 -36 188 -143 404
-69 140 -148 248 -204 282 -21 12 -51 35 -68 50 -16 15 -68 47 -115 70 -47 24
-96 50 -110 59 -85 56 -115 72 -210 110 -58 23 -116 48 -130 56 -47 26 -295
92 -365 97 -38 3 -135 -1 -215 -9z m340 -160 c105 -27 190 -63 265 -114 22
-15 67 -37 100 -49 33 -12 78 -35 100 -50 22 -16 83 -50 135 -75 178 -87 252
-160 338 -332 67 -132 100 -285 116 -541 8 -120 14 -236 15 -258 2 -119 -48
-341 -104 -461 -18 -40 -41 -97 -49 -126 -12 -39 -37 -77 -92 -143 -42 -49
-94 -116 -115 -147 -51 -75 -174 -192 -255 -245 -130 -83 -279 -112 -599 -114
-66 0 -129 -1 -140 -1 -49 -1 -328 23 -367 31 -24 6 -65 20 -92 31 -26 12 -91
30 -143 41 -53 11 -112 29 -132 42 -20 12 -57 31 -82 43 -111 52 -241 165
-341 299 -25 33 -72 90 -105 126 -112 123 -162 212 -195 347 -18 73 -21 112
-20 242 4 283 40 414 215 768 84 171 128 237 189 287 27 22 64 61 83 86 118
158 315 257 575 289 41 5 96 15 123 21 73 17 179 26 332 28 120 1 154 -3 245
-25z"/>
<path d="M3491 4553 c-34 -29 -50 -163 -20 -163 5 0 9 -6 9 -14 0 -8 9 -18 20
-21 11 -3 20 -12 20 -19 0 -20 43 -16 67 6 13 12 28 40 34 61 29 108 -58 209
-130 150z"/>
<path d="M3869 3695 c-53 -7 -113 -18 -133 -23 -29 -8 -39 -7 -51 4 -11 12
-27 14 -62 8 -27 -3 -60 -7 -75 -8 -16 0 -28 -4 -28 -8 0 -5 -5 -8 -12 -8 -22
0 -89 -53 -104 -83 -20 -38 -20 -98 0 -130 17 -25 80 -57 115 -57 29 0 39 -59
56 -325 9 -132 18 -246 20 -253 3 -7 11 -56 20 -110 24 -152 40 -199 75 -217
16 -8 41 -15 55 -15 30 0 72 41 82 78 5 21 -1 172 -12 282 -8 89 -26 289 -29
325 -3 43 -20 123 -42 194 -19 59 -18 101 1 101 8 0 19 9 25 19 12 24 55 30
282 36 138 3 175 8 210 24 85 38 123 115 78 156 -20 18 -38 20 -199 22 -103 1
-216 -4 -272 -12z m401 -70 c0 -10 -88 -25 -270 -45 -180 -19 -178 -19 -184
-3 -13 32 7 38 188 48 55 3 101 7 103 9 8 8 163 0 163 -9z m-576 -51 c20 -20
21 -17 -9 -81 -16 -34 -35 -57 -50 -63 -48 -18 -135 29 -135 74 1 35 44 74 86
79 79 8 93 7 108 -9z m-16 -236 c6 -35 14 -94 17 -133 3 -38 12 -115 20 -170
18 -125 36 -425 28 -466 -9 -45 -28 -29 -31 27 -1 27 -12 123 -24 214 -12 91
-22 192 -23 225 -3 94 -17 219 -25 230 -4 6 -10 34 -14 64 -5 40 -4 56 6 62
27 18 36 7 46 -53z"/>
<path d="M4687 3459 c-25 -15 -45 -60 -42 -94 5 -44 62 -84 80 -55 3 5 19 7
35 4 17 -4 41 0 61 10 18 9 43 16 56 16 16 0 23 6 23 20 0 11 4 20 9 20 5 0
14 13 19 30 17 49 -1 58 -120 58 -57 1 -111 -4 -121 -9z"/>
<path d="M2485 3330 c-3 -5 -23 -10 -44 -10 -20 0 -42 -5 -49 -12 -15 -15 -16
-54 -2 -63 6 -4 8 -10 5 -15 -10 -17 55 -59 103 -65 87 -12 98 -10 116 23 8
15 20 37 27 49 14 27 5 69 -19 82 -27 15 -130 23 -137 11z"/>
<path d="M3719 2393 c-65 -40 -77 -138 -24 -193 35 -36 68 -44 103 -26 39 20
55 41 57 79 2 18 6 40 10 49 8 19 -23 68 -58 93 -27 19 -55 19 -88 -2z"/>
<path d="M4440 6120 c-9 -6 -10 -10 -3 -10 6 0 15 5 18 10 8 12 4 12 -15 0z"/>
<path d="M6016 4605 c-15 -12 -18 -24 -14 -74 4 -53 9 -66 47 -111 24 -28 47
-67 53 -88 6 -20 13 -39 17 -42 11 -9 31 -49 31 -62 0 -7 10 -25 23 -40 19
-23 31 -27 87 -30 l65 -3 8 65 c7 54 5 71 -12 105 -10 22 -25 56 -32 75 -7 19
-21 43 -31 55 -48 53 -82 85 -89 85 -5 0 -9 7 -9 15 0 20 -69 65 -100 65 -14
0 -33 -7 -44 -15z"/>
<path d="M5792 4211 c-8 -4 -13 -10 -11 -12 1 -2 -1 -33 -4 -68 -6 -52 -2 -83
17 -155 29 -107 40 -214 24 -233 -8 -10 9 -13 89 -13 l100 0 0 33 c0 17 -3 37
-7 42 -4 6 -8 28 -8 50 -1 22 -4 54 -7 70 -3 17 -8 42 -9 56 -2 14 -9 36 -15
47 -6 11 -11 30 -11 42 0 32 -35 94 -70 124 -32 26 -64 33 -88 17z"/>
<path d="M1200 2559 c-30 -11 -63 -30 -72 -42 -15 -19 -45 -92 -52 -130 -2 -7
-6 -23 -9 -37 -3 -14 -9 -49 -12 -78 -3 -29 -6 -56 -8 -60 -1 -5 22 -52 52
-106 l54 -97 20 33 c11 18 31 57 44 86 14 28 29 52 34 52 14 0 11 26 -6 40 -8
7 -15 24 -15 37 0 31 32 156 42 163 13 10 38 78 38 103 0 24 -28 58 -46 56 -5
0 -34 -10 -64 -20z"/>
<path d="M1725 2203 c-11 -2 -30 -6 -42 -8 -21 -5 -42 -39 -59 -95 -10 -34 -6
-237 5 -258 4 -9 6 -23 4 -29 -3 -7 2 -13 11 -13 24 0 66 -46 53 -59 -7 -7 -5
-16 7 -30 10 -11 15 -25 11 -30 -3 -6 -2 -11 3 -11 6 0 14 -16 19 -36 4 -20
12 -35 17 -34 4 1 17 -12 27 -29 22 -37 68 -44 76 -11 3 11 9 20 15 20 5 0 4
8 -1 19 -6 10 -8 20 -6 23 2 2 -4 4 -15 4 -13 0 -16 -4 -9 -12 10 -13 2 -44
-12 -44 -12 0 -11 -3 -15 135 -3 126 -7 176 -16 191 -12 22 -8 143 6 185 19
53 20 101 4 117 -12 12 -43 14 -83 5z"/>
</g>
</svg>
