<?xml version="1.0" standalone="no"?>
<!DOCTYPE svg PUBLIC "-//W3C//DTD SVG 20010904//EN"
 "http://www.w3.org/TR/2001/REC-SVG-20010904/DTD/svg10.dtd">
<svg version="1.0" xmlns="http://www.w3.org/2000/svg"
 width="626.000000pt" height="522.000000pt" viewBox="0 0 626.000000 522.000000"
 preserveAspectRatio="xMidYMid meet">

<g transform="translate(0.000000,522.000000) scale(0.100000,-0.100000)"
fill="#000000" stroke="none">
<path d="M3073 4533 c-10 -24 -18 -79 -21 -145 -4 -95 -3 -108 12 -114 25 -10
38 8 48 68 10 61 0 228 -14 228 -5 0 -16 -17 -25 -37z"/>
<path d="M3741 4453 c-44 -52 -136 -212 -146 -255 -15 -58 45 -18 93 62 40 68
111 230 102 235 -4 3 -27 -16 -49 -42z"/>
<path d="M2330 4447 c0 -49 95 -260 133 -296 32 -29 50 -20 42 22 -10 45 -77
187 -114 241 -31 44 -61 60 -61 33z"/>
<path d="M4295 4144 c-16 -14 -51 -43 -77 -64 -42 -36 -148 -179 -148 -201 0
-5 6 -9 14 -9 16 0 156 144 215 223 48 63 46 92 -4 51z"/>
<path d="M1730 4002 c0 -36 128 -149 229 -202 22 -11 23 -11 10 7 -19 26 -173
163 -210 186 -16 11 -29 15 -29 9z"/>
<path d="M2730 3963 c-14 -2 -56 -11 -94 -19 -284 -62 -542 -268 -676 -539
-67 -136 -90 -224 -97 -367 -12 -252 63 -490 218 -693 191 -250 215 -287 266
-393 46 -96 59 -136 83 -260 33 -171 44 -205 77 -250 39 -52 64 -57 158 -31
168 47 499 24 652 -46 64 -29 80 -54 55 -85 l-18 -23 -214 43 c-180 36 -225
42 -292 37 -129 -9 -219 -68 -185 -122 20 -31 134 -83 212 -96 121 -20 308 3
429 55 21 9 46 16 55 16 21 0 61 -41 61 -62 0 -21 -71 -84 -125 -110 -49 -24
-37 -25 -225 18 -167 38 -365 26 -398 -23 -15 -24 -15 -28 4 -62 54 -101 238
-121 473 -51 57 17 105 29 108 27 2 -3 -7 -21 -21 -41 -13 -20 -32 -60 -42
-89 -9 -29 -21 -57 -26 -63 -12 -17 -57 -23 -183 -25 l-109 -3 -7 33 c-4 18
-14 40 -22 48 -14 14 -16 11 -22 -30 -5 -30 -3 -54 7 -74 l13 -28 165 3 c98 2
174 9 188 15 17 9 30 32 46 79 12 37 39 92 60 123 28 40 37 61 32 78 -4 19 0
26 18 35 39 18 98 75 112 109 17 39 5 78 -34 109 -25 21 -26 22 -9 47 56 86
-29 158 -236 201 -137 29 -286 31 -424 7 -66 -11 -137 -21 -155 -21 -63 0 -89
50 -122 233 -21 111 -69 263 -109 342 -38 77 -90 152 -196 290 -159 203 -220
334 -255 544 -21 123 -20 205 3 317 36 172 126 330 267 464 276 263 628 349
999 244 495 -139 816 -437 927 -859 30 -114 32 -130 32 -310 1 -172 -1 -197
-22 -265 -48 -153 -80 -199 -277 -395 -205 -204 -230 -242 -265 -406 -21 -95
-35 -121 -83 -145 -35 -19 -57 -8 -95 49 -111 161 -186 426 -166 586 6 50 11
59 74 120 129 128 193 318 157 467 -37 149 -116 165 -175 35 -37 -81 -47 -131
-71 -344 -11 -91 -22 -171 -26 -177 -3 -5 -19 -10 -35 -10 -42 0 -91 48 -154
149 l-54 88 14 114 c20 159 1 290 -50 338 -30 28 -52 25 -80 -12 -43 -58 -30
-214 30 -364 l26 -65 -22 -49 c-13 -26 -36 -61 -52 -76 -24 -23 -30 -25 -38
-13 -5 8 -10 26 -10 40 0 14 -11 74 -25 135 -40 178 -125 329 -201 361 -42 18
-49 18 -68 -2 -54 -53 44 -362 167 -531 25 -34 54 -64 65 -67 12 -4 22 -19 26
-38 3 -17 6 -169 6 -339 0 -170 4 -309 9 -309 4 0 17 28 27 63 17 54 19 97 19
337 l0 275 45 45 c25 25 54 58 66 75 l20 29 48 -74 c77 -120 123 -160 184
-160 l29 0 6 -113 c13 -246 89 -458 210 -585 35 -36 83 -43 140 -18 58 25 78
56 99 162 20 100 59 192 110 256 16 20 79 81 139 134 163 142 232 245 285 421
36 119 45 342 19 478 -33 176 -98 341 -190 480 -78 117 -241 270 -391 367
-140 90 -359 175 -523 202 -86 15 -305 20 -371 9z m184 -1120 c10 -20 20 -67
23 -103 6 -73 -4 -180 -16 -180 -13 0 -51 126 -58 189 -5 56 9 131 26 131 4 0
15 -17 25 -37z m-303 -95 c48 -67 98 -229 114 -368 l6 -55 -36 40 c-78 85
-158 276 -172 406 l-6 63 32 -23 c18 -13 46 -42 62 -63z m803 30 c24 -37 37
-136 27 -198 -18 -106 -78 -225 -150 -294 l-31 -30 0 25 c0 46 29 295 39 342
21 93 62 177 87 177 7 0 20 -10 28 -22z m-406 -1494 c51 -8 129 -26 175 -38
l82 -23 -35 -15 c-69 -29 -147 -42 -250 -42 -86 1 -118 6 -179 27 -41 14 -79
31 -84 36 -27 27 66 69 154 70 25 1 87 -6 137 -15z m-38 -274 c89 -15 181 -41
175 -50 -8 -12 -130 -38 -216 -46 -123 -11 -217 22 -207 73 6 30 128 42 248
23z"/>
<path d="M4720 3630 c-30 -10 -93 -40 -140 -65 -139 -76 -160 -112 -48 -81
125 34 282 126 264 154 -9 15 -10 15 -76 -8z"/>
<path d="M2987 3580 c-30 -35 -30 -36 -56 -165 -29 -145 -20 -170 66 -186 52
-10 127 5 120 24 -2 7 -26 16 -53 20 -97 17 -94 15 -94 46 0 16 3 43 6 60 l7
32 52 -6 c54 -7 99 0 90 15 -2 4 -34 11 -70 15 -36 3 -65 10 -65 13 0 4 5 25
11 47 17 63 33 75 101 75 33 0 58 4 58 10 0 16 -46 30 -100 30 -41 0 -52 -4
-73 -30z"/>
<path d="M1440 3581 c0 -15 57 -55 130 -91 69 -35 183 -80 202 -80 27 0 -77
68 -187 121 -120 59 -145 67 -145 50z"/>
<path d="M2560 3575 c-11 -13 -6 -37 26 -138 22 -70 38 -143 39 -172 l0 -50
43 2 c57 3 113 47 147 118 21 41 25 62 20 87 -20 96 -118 168 -226 168 -21 0
-42 -7 -49 -15z m135 -58 c45 -26 85 -79 85 -114 0 -35 -25 -79 -63 -107 -42
-32 -57 -33 -57 -3 0 12 -11 63 -25 112 -32 115 -32 135 -2 135 12 0 40 -10
62 -23z"/>
<path d="M3420 3505 c-64 -34 -180 -245 -168 -302 3 -12 16 7 36 49 18 37 37
70 43 74 6 3 28 -6 51 -21 40 -26 40 -28 34 -73 -3 -26 -9 -62 -12 -80 -6 -30
-4 -33 12 -30 25 4 51 62 80 177 30 117 31 174 4 201 -23 23 -45 25 -80 5z
m48 -78 c2 -19 -2 -54 -8 -76 l-11 -40 -35 24 c-19 13 -40 25 -47 28 -8 2 -2
18 17 46 49 71 79 77 84 18z"/>
<path d="M2303 3401 c-48 -35 -97 -95 -123 -152 -31 -69 -23 -77 18 -19 20 29
42 55 47 57 6 1 21 -14 35 -35 14 -20 42 -56 63 -79 l39 -42 -25 -33 c-27 -34
-51 -88 -40 -88 3 0 52 47 108 104 87 89 97 102 67 89 -19 -8 -45 -21 -58 -30
-13 -8 -28 -12 -33 -9 -6 4 -35 43 -66 88 l-56 81 40 41 c61 63 53 77 -16 27z"/>
<path d="M3788 3330 c-40 -24 -145 -195 -135 -223 4 -14 85 60 137 128 52 67
51 125 -2 95z"/>
<path d="M1272 3100 c6 -20 48 -29 206 -41 129 -11 165 -9 150 6 -13 13 -152
36 -252 42 -89 5 -108 4 -104 -7z"/>
<path d="M4721 3078 c-97 -11 -153 -27 -159 -47 -4 -12 16 -13 119 -8 107 5
296 31 307 42 26 25 -101 31 -267 13z"/>
<path d="M3582 3028 c-17 -17 -15 -48 3 -54 18 -7 45 12 45 32 0 20 -34 36
-48 22z"/>
<path d="M1577 2540 c-114 -20 -274 -81 -262 -100 22 -35 294 18 342 66 41 42
21 50 -80 34z"/>
<path d="M4474 2469 c-7 -12 13 -29 35 -29 8 0 72 -14 142 -31 90 -23 137 -30
164 -25 44 9 45 34 2 54 -67 32 -327 56 -343 31z"/>
<path d="M2015 2019 c-4 -5 -46 -35 -93 -66 -165 -105 -268 -201 -245 -224 26
-26 362 241 363 289 0 15 -16 16 -25 1z"/>
<path d="M4270 2005 c0 -23 81 -70 194 -114 129 -50 204 -67 219 -52 17 17 3
26 -138 87 -217 93 -275 110 -275 79z"/>
</g>
</svg>
